<svg width="64" height="39" viewBox="0 0 64 39" fill="none" xmlns="http://www.w3.org/2000/svg">
<path d="M31.9461 33.5C35.7461 30 38.1461 25 38.1461 19.5C38.1461 13.9 35.7461 8.89998 31.9461 5.49998C28.5461 2.49998 24.1461 0.599976 19.2461 0.599976C8.74609 0.599976 0.246094 9.09998 0.246094 19.5C0.246094 30 8.74609 38.5 19.2461 38.5C24.1461 38.4 28.5461 36.5 31.9461 33.5Z" fill="#3362AB"/>
<path d="M31.946 33.5C35.746 30 38.1461 25 38.1461 19.5C38.1461 13.9 35.746 8.9 31.946 5.5" fill="#3362AB"/>
<path d="M31.946 33.5C35.746 30 38.1461 25 38.1461 19.5C38.1461 13.9 35.746 8.9 31.946 5.5" stroke="#3362AB" stroke-width="0.3097"/>
<path d="M44.6461 0.5C39.7461 0.5 35.2461 2.39999 31.9461 5.39999C31.2461 5.99999 30.6461 6.69999 30.0461 7.39999H33.8461C34.3461 7.99999 34.8461 8.69999 35.2461 9.39999H28.5461C28.1461 9.99999 27.7461 10.7 27.4461 11.4H36.3461C36.6461 12.1 36.9461 12.7 37.1461 13.4H26.6461C26.4461 14.1 26.2461 14.7 26.0461 15.4H37.6461C37.9461 16.7 38.0461 18 38.0461 19.4C38.0461 21.5 37.7461 23.5 37.0461 25.4H26.5461C26.7461 26.1 27.0461 26.8 27.3461 27.4H36.2461C35.9461 28.1 35.5461 28.8 35.1461 29.4H28.4461C28.8461 30.1 29.3461 30.8 29.8461 31.4H33.6461C33.0461 32.1 32.4461 32.8 31.7461 33.4C35.1461 36.4 39.5461 38.3 44.4461 38.3C54.9461 38.3 63.3461 29.8 63.3461 19.3C63.6461 9 55.1461 0.5 44.6461 0.5Z" fill="#C9191B"/>
<path d="M16.8461 24.1H14.4461L15.8461 16.7L12.6461 24.1H10.5461L10.1461 16.8L8.74609 24.1H6.64612L8.44611 14.5H12.1461L12.3461 20.5L14.9461 14.5H18.7461L16.8461 24.1Z" fill="white"/>
<path d="M43.2461 24.1C42.6461 24.3 42.0461 24.4 41.5461 24.4C40.3461 24.4 39.6461 23.8 39.6461 22.7C39.6461 22.5 39.6461 22.2 39.7461 22L39.8461 21.2L39.9461 20.6L41.0461 14.6H43.3461L43.0461 16.4H44.2461L43.9461 18.3H42.7461L42.1461 21.6C42.1461 21.7 42.1461 21.9 42.1461 21.9C42.1461 22.3 42.4461 22.5 42.9461 22.5C43.2461 22.5 43.4461 22.5 43.5461 22.4L43.2461 24.1Z" fill="white"/>
<path d="M50.0461 16.4C49.8461 16.3 49.8461 16.3 49.7461 16.3C49.6461 16.3 49.5461 16.3 49.5461 16.3C49.4461 16.3 49.3461 16.3 49.2461 16.3C48.4461 16.3 47.9461 16.6 47.1461 17.6L47.3461 16.4H45.4461L44.0461 24.2H46.4461C47.2461 19.4 47.6461 18.6 48.7461 18.6C48.8461 18.6 48.9461 18.6 49.0461 18.6L49.3461 18.7L50.0461 16.4Z" fill="white"/>
<path d="M33.846 18.8C33.846 19.8 34.4461 20.5 35.6461 21C36.6461 21.4 36.746 21.5 36.746 21.9C36.746 22.4 36.346 22.6 35.346 22.6C34.646 22.6 33.946 22.5 33.246 22.3L32.946 24.1H33.0461L33.446 24.2C33.546 24.2 33.8461 24.3 34.0461 24.3C34.6461 24.3 35.046 24.4 35.346 24.4C37.846 24.4 39.0461 23.6 39.0461 21.8C39.0461 20.7 38.546 20.1 37.346 19.6C36.346 19.2 36.246 19.1 36.246 18.7C36.246 18.3 36.646 18.1 37.446 18.1C37.946 18.1 38.5461 18.1 39.1461 18.2L39.446 16.4C38.846 16.3 37.946 16.2 37.346 16.2C34.746 16.2 33.846 17.4 33.846 18.8Z" fill="white"/>
<path d="M22.8461 20.7C22.5461 20.7 22.4461 20.7 22.3461 20.7C21.0461 20.7 20.3461 21.1 20.3461 21.9C20.3461 22.4 20.6461 22.7 21.1461 22.7C22.0461 22.6 22.7461 21.8 22.8461 20.7ZM24.5461 24.1H22.5461L22.6461 23.3C22.0461 23.9 21.2461 24.2 20.1461 24.2C18.8461 24.2 18.0461 23.3 18.0461 22.1C18.0461 20.2 19.5461 19.1 22.1461 19.1C22.4461 19.1 22.7461 19.1 23.1461 19.2C23.2461 18.9 23.2461 18.8 23.2461 18.7C23.2461 18.2 22.8461 18 21.7461 18C21.0461 18 20.3461 18.1 19.8461 18.2L19.5461 18.3L19.3461 18.4L19.6461 16.6C20.8461 16.3 21.5461 16.2 22.4461 16.2C24.4461 16.2 25.5461 17 25.5461 18.5C25.5461 18.9 25.5461 19.2 25.3461 20L24.8461 22.8L24.7461 23.3L24.6461 23.7V24L24.5461 24.1Z" fill="white"/>
<path d="M31.0461 19.3C31.0461 19.1 31.0461 19 31.0461 18.9C31.0461 18.3 30.6461 17.9 29.9461 17.9C29.1461 17.9 28.6461 18.4 28.4461 19.3H31.0461ZM32.2461 24C31.4461 24.2 30.6461 24.3 29.8461 24.3C27.2461 24.3 25.8461 23.1 25.8461 20.8C25.8461 18.1 27.5461 16.1 29.9461 16.1C31.8461 16.1 33.1461 17.2 33.1461 18.9C33.1461 19.5 33.0461 20 32.8461 20.8H28.1461C28.1461 20.9 28.1461 21 28.1461 21C28.1461 21.9 28.8461 22.4 30.2461 22.4C31.0461 22.4 31.8461 22.2 32.7461 21.9L32.2461 24Z" fill="white"/>
<path d="M54.9461 19.6C54.9461 18.8 54.6461 18 53.6461 18C52.4461 18 51.7461 19.4 51.7461 20.7C51.7461 21.8 52.2461 22.5 53.1461 22.5C53.6461 22.5 54.7461 21.8 54.9461 20.6C54.9461 20.3 54.9461 19.9 54.9461 19.6ZM57.4461 20.6C57.0461 23.2 55.2461 24.4 52.8461 24.4C50.1461 24.4 49.1461 22.8 49.1461 20.8C49.1461 18 50.9461 16.2 53.7461 16.2C56.2461 16.2 57.4461 17.7 57.4461 19.7C57.5461 20.1 57.5461 20.1 57.4461 20.6Z" fill="white"/>
</svg>
