<svg width="66" height="39" viewBox="0 0 66 39" fill="none" xmlns="http://www.w3.org/2000/svg">
<path d="M65.2461 19.5C65.2461 30.2 56.5461 39 45.7461 39C35.0461 39 26.2461 30.2 26.2461 19.5C26.2461 8.8 34.9461 0 45.6461 0C56.5461 0 65.2461 8.8 65.2461 19.5Z" fill="#F9B50B"/>
<path d="M39.1461 19.6C39.1461 18.2 38.9461 16.8 38.7461 15.5H26.7461C26.8461 14.8 27.0461 14.2 27.2461 13.4H37.9461C37.7461 12.7 37.4461 12 37.1461 11.3H28.0461C28.3461 10.6 28.7461 10 29.1461 9.2H36.0461C35.6461 8.5 35.1461 7.8 34.5461 7.1H30.7461C31.3461 6.4 31.9461 5.8 32.7461 5.1C29.3461 1.9 24.7461 0 19.6461 0C9.04609 0.3 0.246094 8.8 0.246094 19.5C0.246094 30.2 8.94609 39 19.7461 39C24.8461 39 29.3461 37 32.8461 33.9C33.5461 33.3 34.1461 32.6 34.8461 31.8H30.8461C30.3461 31.2 29.8461 30.5 29.4461 29.8H36.2461C36.6461 29.2 37.0461 28.5 37.3461 27.7H28.2461C27.9461 27.1 27.6461 26.4 27.4461 25.6H38.1461C38.7461 23.8 39.1461 21.8 39.1461 19.6Z" fill="#C8191C"/>
<path d="M26.6461 24.5L26.9461 22.7C26.8461 22.7 26.6461 22.8 26.4461 22.8C25.7461 22.8 25.6461 22.4 25.7461 22.2L26.3461 18.6H27.4461L27.7461 16.6H26.7461L26.9461 15.4H24.8461C24.8461 15.4 23.6461 22.2 23.6461 23C23.6461 24.2 24.3461 24.8 25.3461 24.8C25.9461 24.8 26.4461 24.6 26.6461 24.5Z" fill="white"/>
<path d="M27.3461 21.2C27.3461 24.1 29.3461 24.8 30.9461 24.8C32.4461 24.8 33.1461 24.5 33.1461 24.5L33.5461 22.5C33.5461 22.5 32.4461 23 31.3461 23C29.0461 23 29.4461 21.3 29.4461 21.3H33.6461C33.6461 21.3 33.9461 20 33.9461 19.4C33.9461 18.1 33.2461 16.4 30.9461 16.4C28.9461 16.3 27.3461 18.6 27.3461 21.2ZM30.9461 18.2C32.0461 18.2 31.8461 19.5 31.8461 19.6H29.5461C29.6461 19.5 29.8461 18.2 30.9461 18.2Z" fill="white"/>
<path d="M44.0461 24.5L44.4461 22.2C44.4461 22.2 43.4461 22.7 42.6461 22.7C41.2461 22.7 40.5461 21.6 40.5461 20.3C40.5461 17.8 41.7461 16.5 43.2461 16.5C44.2461 16.5 45.1461 17.1 45.1461 17.1L45.4461 14.9C45.4461 14.9 44.2461 14.4 43.0461 14.4C40.6461 14.4 38.3461 16.5 38.3461 20.4C38.3461 23 39.5461 24.7 42.0461 24.7C42.9461 24.8 44.0461 24.5 44.0461 24.5Z" fill="white"/>
<path d="M15.346 16.3C13.946 16.3 12.846 16.7 12.846 16.7L12.546 18.5C12.546 18.5 13.446 18.1 14.846 18.1C15.546 18.1 16.146 18.2 16.146 18.8C16.146 19.2 16.046 19.3 16.046 19.3H15.146C13.346 19.3 11.446 20 11.446 22.4C11.446 24.3 12.646 24.7 13.446 24.7C14.846 24.7 15.546 23.8 15.646 23.8L15.546 24.6H17.246L18.046 18.9C18.046 16.4 16.046 16.3 15.346 16.3ZM15.746 20.9C15.746 21.2 15.546 22.9 14.346 22.9C13.746 22.9 13.546 22.4 13.546 22.1C13.546 21.6 13.846 20.9 15.446 20.9C15.646 20.9 15.746 20.9 15.746 20.9Z" fill="white"/>
<path d="M20.0461 24.7C20.5461 24.7 23.1461 24.8 23.1461 22C23.1461 19.4 20.6461 19.9 20.6461 18.9C20.6461 18.4 21.0461 18.2 21.7461 18.2C22.0461 18.2 23.1461 18.3 23.1461 18.3L23.4461 16.4C23.4461 16.4 22.7461 16.2 21.4461 16.2C19.9461 16.2 18.3461 16.8 18.3461 18.9C18.3461 21.3 20.9461 21.1 20.9461 22C20.9461 22.6 20.2461 22.7 19.7461 22.7C18.8461 22.7 17.8461 22.4 17.8461 22.4L17.5461 24.3C17.7461 24.5 18.3461 24.7 20.0461 24.7Z" fill="white"/>
<path d="M61.2461 14.7L60.8461 17.5C60.8461 17.5 60.0461 16.5 58.8461 16.5C56.9461 16.5 55.3461 18.8 55.3461 21.5C55.3461 23.2 56.1461 24.9 57.9461 24.9C59.1461 24.9 59.9461 24.1 59.9461 24.1L59.8461 24.8H61.9461L63.4461 14.9L61.2461 14.7ZM60.2461 20.1C60.2461 21.2 59.7461 22.7 58.5461 22.7C57.8461 22.7 57.4461 22.1 57.4461 21C57.4461 19.3 58.1461 18.3 59.1461 18.3C59.8461 18.4 60.2461 18.9 60.2461 20.1Z" fill="white"/>
<path d="M4.04614 24.6L5.24614 17.2L5.44614 24.6H6.84614L9.54614 17.2L8.44614 24.6H10.6461L12.3461 14.7H8.94614L6.84614 20.8L6.74614 14.7H3.74614L2.04614 24.6H4.04614Z" fill="white"/>
<path d="M36.0461 24.6C36.6461 21.2 36.7461 18.4 38.2461 18.9C38.4461 17.6 38.7461 17 38.9461 16.5H38.5461C37.6461 16.5 36.8461 17.7 36.8461 17.7L37.0461 16.6H35.0461L33.7461 24.6H36.0461Z" fill="white"/>
<path d="M48.846 16.3C47.446 16.3 46.346 16.7 46.346 16.7L46.046 18.5C46.046 18.5 46.946 18.1 48.346 18.1C49.046 18.1 49.646 18.2 49.646 18.8C49.646 19.2 49.546 19.3 49.546 19.3H48.646C46.846 19.3 44.946 20 44.946 22.4C44.946 24.3 46.146 24.7 46.946 24.7C48.346 24.7 49.046 23.8 49.146 23.8L49.046 24.6H50.946L51.746 18.9C51.746 16.4 49.546 16.3 48.846 16.3ZM49.346 20.9C49.346 21.2 49.146 22.9 47.946 22.9C47.346 22.9 47.146 22.4 47.146 22.1C47.146 21.6 47.446 20.9 49.046 20.9C49.246 20.9 49.246 20.9 49.346 20.9Z" fill="white"/>
<path d="M53.3461 24.6C53.9461 21.2 54.0461 18.4 55.5461 18.9C55.7461 17.6 56.0461 17 56.2461 16.5H55.8461C54.9461 16.5 54.1461 17.7 54.1461 17.7L54.3461 16.6H52.3461L51.0461 24.6H53.3461Z" fill="white"/>
</svg>
