<svg width="54" height="17" viewBox="0 0 54 17" fill="none" xmlns="http://www.w3.org/2000/svg">
<path d="M48.2463 0.75H37.9463C38.5463 4.15 41.8463 7.35001 45.4463 7.35001H53.6463C53.7463 7.05001 53.7463 6.55 53.7463 6.25C53.7463 3.25 51.2463 0.75 48.2463 0.75Z" fill="url(#paint0_linear_50_1196)"/>
<path d="M38.8462 7.95001V16.25H43.8462V11.85H48.2462C50.6462 11.85 52.7462 10.15 53.4462 7.95001H38.8462Z" fill="#4FAD50"/>
<path d="M21.2462 0.75V16.15H25.6462C25.6462 16.15 26.7462 16.15 27.3462 15.05C30.3462 9.15 31.2462 7.35001 31.2462 7.35001H31.8462V16.15H36.8462V0.75H32.4462C32.4462 0.75 31.3462 0.850006 30.7462 1.85001C28.2462 6.95001 26.8462 9.55 26.8462 9.55H26.2462V0.75H21.2462Z" fill="#4FAD50"/>
<path d="M0.246216 16.25V0.849976H5.24622C5.24622 0.849976 6.64623 0.849972 7.44623 3.04997C9.44623 8.84997 9.64624 9.64998 9.64624 9.64998C9.64624 9.64998 10.0462 8.24997 11.8462 3.04997C12.6462 0.849972 14.0462 0.849976 14.0462 0.849976H19.0462V16.25H14.0462V7.94998H13.4462L10.6462 16.25H8.44623L5.64624 7.94998H5.04623V16.25H0.246216Z" fill="#4FAD50"/>
<defs>
<linearGradient id="paint0_linear_50_1196" x1="37.9285" y1="4.0973" x2="53.7109" y2="4.0973" gradientUnits="userSpaceOnUse">
<stop stop-color="#27B1E6"/>
<stop offset="1" stop-color="#148ACA"/>
</linearGradient>
</defs>
</svg>
