<svg width="55" height="16" viewBox="0 0 55 16" fill="none" xmlns="http://www.w3.org/2000/svg">
<path d="M48.7665 0.333374H38.4666C39.0666 3.73337 42.3666 6.93338 45.9666 6.93338H54.1666C54.2666 6.63338 54.2665 6.13337 54.2665 5.83337C54.2665 2.83337 51.7665 0.333374 48.7665 0.333374Z" fill="white"/>
<path d="M39.3667 7.53339V15.8334H44.3667V11.4334H48.7667C51.1667 11.4334 53.2667 9.73339 53.9667 7.53339H39.3667Z" fill="white"/>
<path d="M21.7666 0.333374V15.7334H26.1666C26.1666 15.7334 27.2666 15.7334 27.8666 14.6334C30.8666 8.73338 31.7666 6.93338 31.7666 6.93338H32.3666V15.7334H37.3666V0.333374H32.9666C32.9666 0.333374 31.8666 0.43338 31.2666 1.43338C28.7666 6.53338 27.3666 9.13338 27.3666 9.13338H26.7666V0.333374H21.7666Z" fill="white"/>
<path d="M0.766602 15.8334V0.43338H5.7666C5.7666 0.43338 7.16661 0.433377 7.96661 2.63338C9.96661 8.43338 10.1666 9.23338 10.1666 9.23338C10.1666 9.23338 10.5666 7.83338 12.3666 2.63338C13.1666 0.433377 14.5666 0.43338 14.5666 0.43338H19.5666V15.8334H14.5666V7.53339H13.9666L11.1666 15.8334H8.96661L6.16663 7.53339H5.56662V15.8334H0.766602Z" fill="white"/>
</svg>
