<svg width="69" height="21" viewBox="0 0 69 21" fill="none" xmlns="http://www.w3.org/2000/svg">
<path d="M64.1538 0.299988H59.8538C58.5538 0.299988 57.5538 0.699988 56.9538 1.99999L48.7538 20.7H54.5538C54.5538 20.7 55.5538 18.2 55.7538 17.6C56.3538 17.6 62.0538 17.6 62.8538 17.6C63.0538 18.3 63.5538 20.6 63.5538 20.6H68.7538L64.1538 0.299988ZM57.3538 13.4C57.8538 12.2 59.5538 7.69999 59.5538 7.69999C59.5538 7.79999 60.0538 6.49999 60.2538 5.79999L60.6538 7.59999C60.6538 7.59999 61.7538 12.5 61.9538 13.5H57.3538V13.4Z" fill="#3362AB"/>
<path d="M49.1538 14C49.1538 18.2 45.3538 21 39.4538 21C36.9538 21 34.5538 20.5 33.2538 19.9L34.0538 15.3L34.7538 15.6C36.5538 16.4 37.7538 16.7 39.9538 16.7C41.5538 16.7 43.2538 16.1 43.2538 14.7C43.2538 13.8 42.5538 13.2 40.3538 12.2C38.2538 11.2 35.4538 9.6 35.4538 6.7C35.4538 2.7 39.3538 0 44.8538 0C46.9538 0 48.7538 0.4 49.8538 0.9L49.0538 5.3L48.6538 4.9C47.6538 4.5 46.3538 4.1 44.4538 4.1C42.3538 4.2 41.3538 5.1 41.3538 5.9C41.3538 6.8 42.5538 7.5 44.4538 8.4C47.6538 9.9 49.1538 11.6 49.1538 14Z" fill="#3362AB"/>
<path d="M0.35376 0.499976L0.45376 0.0999756H9.05376C10.2538 0.0999756 11.1538 0.499976 11.4538 1.79998L13.3538 10.8C11.4538 5.99998 7.05376 2.09998 0.35376 0.499976Z" fill="#F9B50B"/>
<path d="M25.4538 0.300012L16.7538 20.6H10.8538L5.85376 3.60001C9.45376 5.90001 12.4538 9.50001 13.5538 12L14.1538 14.1L19.5538 0.200012H25.4538V0.300012Z" fill="#3362AB"/>
<path d="M27.7538 0.200012H33.2538L29.7538 20.6H24.2538L27.7538 0.200012Z" fill="#3362AB"/>
</svg>
